
        <svg xmlns="http://www.w3.org/2000/svg" xmlns:xlink="http://www.w3.org/1999/xlink" version="1.1" width="3162.111047853983" 
        height="1012.2484343860743" viewBox="0 0 3162.111047853983 1012.2484343860743">
			<rect fill="#ffffff" width="3162.111047853983" height="1012.2484343860743"/>
			<g transform="scale(8.10555239269914) translate(10, 10)">
				<defs id="SvgjsDefs1287"></defs><g id="SvgjsG1288" featureKey="HKaMnE-0" transform="matrix(1.1099307537078857,0,0,1.1099307537078857,-4.932383858440156,4.945133554210672)" fill="#5a5d9d"><path xmlns="http://www.w3.org/2000/svg" d="M49.8896484,36.2685547c-7.5712891,0-13.7314453,6.1601562-13.7314453,13.7314453  s6.1601562,13.7314453,13.7314453,13.7314453c7.5722656,0,13.7324219-6.1601562,13.7324219-13.7314453  S57.4619141,36.2685547,49.8896484,36.2685547z M49.8896484,61.7314453c-6.46875,0-11.7314453-5.2626953-11.7314453-11.7314453  s5.2626953-11.7314453,11.7314453-11.7314453c6.4697266,0,11.7324219,5.2626953,11.7324219,11.7314453  S56.359375,61.7314453,49.8896484,61.7314453z"></path><path xmlns="http://www.w3.org/2000/svg" d="M78.78125,44.7861328c0.2822266-0.0292969,0.5390625-0.1777344,0.7050781-0.4072266  c0.1669922-0.2294922,0.2275391-0.5195312,0.1679688-0.796875c-0.7714844-3.5927734-2.1796875-6.9873047-4.1835938-10.0869141  c-0.1542969-0.2382812-0.4023438-0.3994141-0.6816406-0.4443359c-0.2783203-0.046875-0.5654297,0.03125-0.7871094,0.2099609  c-2.0878906,1.6855469-5.0966797,1.5263672-6.9970703-0.375c-1.9013672-1.9013672-2.0625-4.9101562-0.375-6.9980469  c0.1787109-0.2207031,0.2548828-0.5068359,0.2099609-0.7871094c-0.0449219-0.2792969-0.2060547-0.5273438-0.4443359-0.6816406  c-3.0996094-2.0039062-6.4941406-3.4121094-10.0869141-4.1835938c-0.2763672-0.0585938-0.5673828,0.0009766-0.796875,0.1679688  c-0.2294922,0.1660156-0.3779297,0.4228516-0.4072266,0.7050781c-0.28125,2.671875-2.5234375,4.6875-5.2148438,4.6875  s-4.9326172-2.015625-5.2138672-4.6875c-0.0292969-0.2822266-0.1777344-0.5390625-0.4072266-0.7050781  c-0.2294922-0.1669922-0.5205078-0.2255859-0.796875-0.1679688c-3.5927734,0.7714844-6.9873047,2.1796875-10.0869141,4.1835938  c-0.2382812,0.1542969-0.3994141,0.4023438-0.4443359,0.6816406c-0.0449219,0.2802734,0.03125,0.5664062,0.2099609,0.7871094  c1.6875,2.0878906,1.5263672,5.0966797-0.375,6.9980469c-1.9013672,1.9003906-4.9101562,2.0615234-6.9980469,0.375  c-0.2207031-0.1787109-0.5068359-0.2568359-0.7871094-0.2099609c-0.2802734,0.0449219-0.5273438,0.2060547-0.6816406,0.4443359  c-2.0058594,3.1035156-3.4130859,6.4970703-4.1826172,10.0869141c-0.0595703,0.2773438,0.0009766,0.5673828,0.1679688,0.796875  s0.4228516,0.3779297,0.7050781,0.4072266c2.671875,0.28125,4.6875,2.5224609,4.6875,5.2138672  s-2.015625,4.9326172-4.6875,5.2138672c-0.2822266,0.0292969-0.5380859,0.1777344-0.7050781,0.4072266  s-0.2275391,0.5195312-0.1679688,0.796875c0.7695312,3.5898438,2.1767578,6.9833984,4.1826172,10.0869141  c0.1542969,0.2382812,0.4013672,0.3994141,0.6816406,0.4443359c0.2802734,0.0478516,0.5664062-0.03125,0.7871094-0.2099609  c2.0869141-1.6855469,5.0966797-1.5253906,6.9980469,0.375c1.9013672,1.9013672,2.0625,4.9101562,0.375,6.9980469  c-0.1787109,0.2207031-0.2548828,0.5068359-0.2099609,0.7871094c0.0449219,0.2792969,0.2060547,0.5273438,0.4443359,0.6816406  c3.0996094,2.0039062,6.4941406,3.4121094,10.0869141,4.1835938c0.2753906,0.0576172,0.5673828,0,0.796875-0.1679688  c0.2294922-0.1660156,0.3779297-0.4228516,0.4072266-0.7050781c0.28125-2.671875,2.5224609-4.6875,5.2138672-4.6875  s4.9335938,2.015625,5.2148438,4.6875c0.0292969,0.2822266,0.1777344,0.5390625,0.4072266,0.7050781  c0.171875,0.125,0.3779297,0.1904297,0.5869141,0.1904297c0.0703125,0,0.140625-0.0078125,0.2099609-0.0224609  c3.5927734-0.7714844,6.9873047-2.1796875,10.0869141-4.1835938c0.2382812-0.1542969,0.3994141-0.4023438,0.4443359-0.6816406  c0.0449219-0.2802734-0.03125-0.5664062-0.2099609-0.7871094c-1.6875-2.0878906-1.5263672-5.0966797,0.375-6.9980469  s4.9101562-2.0615234,6.9970703-0.375c0.2216797,0.1787109,0.5087891,0.2578125,0.7871094,0.2099609  c0.2792969-0.0449219,0.5273438-0.2060547,0.6816406-0.4443359c2.0039062-3.0996094,3.4121094-6.4941406,4.1835938-10.0869141  c0.0595703-0.2773438-0.0009766-0.5673828-0.1679688-0.796875c-0.1660156-0.2294922-0.4228516-0.3779297-0.7050781-0.4072266  c-2.671875-0.28125-4.6875-2.5224609-4.6875-5.2138672S76.109375,45.0673828,78.78125,44.7861328z M72.09375,50  c0,3.3359375,2.2421875,6.1708984,5.3710938,6.9990234c-0.671875,2.65625-1.7216797,5.1865234-3.1318359,7.5478516  c-2.796875-1.6240234-6.3857422-1.2041016-8.7421875,1.1533203c-2.3574219,2.3574219-2.7783203,5.9462891-1.1542969,8.7441406  c-2.3603516,1.4091797-4.890625,2.4589844-7.546875,3.1308594c-0.828125-3.1289062-3.6640625-5.3710938-7-5.3710938  s-6.1708984,2.2421875-6.9990234,5.3710938c-2.65625-0.671875-5.1865234-1.7216797-7.5478516-3.1318359  c1.6240234-2.796875,1.203125-6.3867188-1.1533203-8.7431641c-2.3574219-2.3564453-5.9443359-2.7783203-8.7431641-1.1533203  c-1.4101562-2.3632812-2.4609375-4.8935547-3.1308594-7.5478516C25.4443359,56.171875,27.6865234,53.3359375,27.6865234,50  s-2.2421875-6.171875-5.3710938-6.9990234c0.6699219-2.6542969,1.7207031-5.1845703,3.1308594-7.546875  c2.7988281,1.6240234,6.3876953,1.2041016,8.7431641-1.1542969c2.3564453-2.3564453,2.7773438-5.9462891,1.1533203-8.7431641  c2.3613281-1.4101562,4.8916016-2.4599609,7.5478516-3.1318359c0.828125,3.1289062,3.6630859,5.3710938,6.9990234,5.3710938  s6.171875-2.2421875,7-5.3710938c2.65625,0.671875,5.1865234,1.7216797,7.546875,3.1308594  c-1.6240234,2.7978516-1.203125,6.3867188,1.1542969,8.7441406c2.3564453,2.3574219,5.9472656,2.7783203,8.7421875,1.1533203  c1.4101562,2.3613281,2.4599609,4.8916016,3.1318359,7.5478516C74.3359375,43.8291016,72.09375,46.6640625,72.09375,50z"></path><path xmlns="http://www.w3.org/2000/svg" d="M48.8896484,10.9599609v7.2011719c0,0.5527344,0.4472656,1,1,1s1-0.4472656,1-1v-7.2011719c0-0.5527344-0.4472656-1-1-1  S48.8896484,10.4072266,48.8896484,10.9599609z"></path><path xmlns="http://www.w3.org/2000/svg" d="M24.6699219,26.1933594c0.1953125,0.1953125,0.4511719,0.2929688,0.7070312,0.2929688  s0.5117188-0.0976562,0.7070312-0.2929688c0.390625-0.390625,0.390625-1.0234375,0-1.4140625L20.9912109,19.6875  c-0.390625-0.390625-1.0234375-0.390625-1.4140625,0s-0.390625,1.0234375,0,1.4140625L24.6699219,26.1933594z"></path><path xmlns="http://www.w3.org/2000/svg" d="M10.8496094,51h7.2021484c0.5527344,0,1-0.4472656,1-1s-0.4472656-1-1-1h-7.2021484c-0.5527344,0-1,0.4472656-1,1  S10.296875,51,10.8496094,51z"></path><path xmlns="http://www.w3.org/2000/svg" d="M20.9912109,80.3125l5.0927734-5.0917969c0.390625-0.390625,0.390625-1.0234375,0-1.4140625  s-1.0234375-0.390625-1.4140625,0l-5.0927734,5.0917969c-0.390625,0.390625-0.390625,1.0234375,0,1.4140625  c0.1953125,0.1953125,0.4511719,0.2929688,0.7070312,0.2929688S20.7958984,80.5078125,20.9912109,80.3125z"></path><path xmlns="http://www.w3.org/2000/svg" d="M50.8896484,89.0400391v-7.2011719c0-0.5527344-0.4472656-1-1-1s-1,0.4472656-1,1v7.2011719c0,0.5527344,0.4472656,1,1,1  S50.8896484,89.5927734,50.8896484,89.0400391z"></path><path xmlns="http://www.w3.org/2000/svg" d="M80.2021484,78.8984375l-5.0917969-5.0917969c-0.390625-0.390625-1.0234375-0.390625-1.4140625,0  s-0.390625,1.0234375,0,1.4140625L78.7880859,80.3125c0.1953125,0.1953125,0.4511719,0.2929688,0.7070312,0.2929688  s0.5117188-0.0976562,0.7070312-0.2929688C80.5927734,79.921875,80.5927734,79.2890625,80.2021484,78.8984375z"></path><path xmlns="http://www.w3.org/2000/svg" d="M80.7285156,50c0,0.5527344,0.4472656,1,1,1h7.2011719c0.5527344,0,1-0.4472656,1-1s-0.4472656-1-1-1h-7.2011719  C81.1757812,49,80.7285156,49.4472656,80.7285156,50z"></path><path xmlns="http://www.w3.org/2000/svg" d="M80.2021484,19.6875c-0.390625-0.390625-1.0234375-0.390625-1.4140625,0l-5.0917969,5.0917969  c-0.390625,0.390625-0.390625,1.0234375,0,1.4140625c0.1953125,0.1953125,0.4511719,0.2929688,0.7070312,0.2929688  s0.5117188-0.0976562,0.7070312-0.2929688l5.0917969-5.0917969C80.5927734,20.7109375,80.5927734,20.078125,80.2021484,19.6875z"></path></g><g id="SvgjsG1289" featureKey="J3GnXt-0" transform="matrix(4.29044771194458,0,0,4.29044771194458,105.13859186624714,-14.105791121842891)" fill="#111111"><path d="M5.86 10.3 c1.5067 0 2.72 0.5 3.64 1.5 l-1.36 1.24 c-0.65334 -0.70666 -1.44 -1.06 -2.36 -1.06 c-0.88 0 -1.5933 0.31334 -2.14 0.94 s-0.82 1.4333 -0.82 2.42 c0 0.93334 0.28666 1.7 0.86 2.3 s1.3067 0.90666 2.2 0.92 c0.94666 0 1.7133 -0.35334 2.3 -1.06 l1.28 1.28 c-0.85334 0.97334 -2.0534 1.46 -3.6 1.46 c-1.4533 0 -2.6366 -0.45334 -3.55 -1.36 s-1.3833 -2.1 -1.41 -3.58 c0.01334 -1.5067 0.48334 -2.7134 1.41 -3.62 s2.11 -1.3667 3.55 -1.38 z M15.580000000000002 10.28 c1.4 0 2.5866 0.48338 3.56 1.45 s1.4667 2.1434 1.48 3.53 c0 1.4 -0.48666 2.5734 -1.46 3.52 s-2.1666 1.4333 -3.58 1.46 c-1.3867 0 -2.5666 -0.48 -3.54 -1.44 s-1.4733 -2.14 -1.5 -3.54 c0 -1.3733 0.48334 -2.54 1.45 -3.5 s2.1634 -1.4533 3.59 -1.48 z M12.46 15.26 c0 0.97334 0.28664 1.7633 0.85998 2.37 s1.3267 0.91666 2.26 0.93 c0.94666 0 1.7 -0.30334 2.26 -0.91 s0.84666 -1.4033 0.86 -2.39 c0 -0.97334 -0.28 -1.7633 -0.84 -2.37 s-1.3267 -0.91666 -2.3 -0.93 c-0.94666 0 -1.7 0.31334 -2.26 0.94 s-0.84 1.4133 -0.84 2.36 z M27.640000000000004 10.28 c1.3733 0 2.36 0.58666 2.96 1.76 c0.30666 -0.56 0.72666 -0.99334 1.26 -1.3 s1.1133 -0.46 1.74 -0.46 c2.3866 0 3.5866 1.3733 3.6 4.12 l0 5.6 l-1.8 0 l0 -5.38 c0 -0.93334 -0.16666 -1.61 -0.5 -2.03 s-0.84668 -0.63 -1.54 -0.63 c-0.81334 0 -1.42 0.24666 -1.82 0.74 s-0.6 1.1733 -0.6 2.04 l0 5.26 l-1.8 0 l0 -5.1 c0 -1.12 -0.16 -1.89 -0.48 -2.31 s-0.82666 -0.63 -1.52 -0.63 c-0.74666 0 -1.3433 0.28666 -1.79 0.86 s-0.67 1.3 -0.67 2.18 l0 5 l-1.8 0 l0 -9.48 l1.68 0 l0 1.48 l0.04 0 c0.2 -0.46666 0.59666 -0.87 1.19 -1.21 s1.21 -0.51 1.85 -0.51 z M45.08 10.28 c1.4 0 2.5434 0.45998 3.43 1.38 s1.3433 2.12 1.37 3.6 c0 1.48 -0.45334 2.6766 -1.36 3.59 s-2.06 1.3767 -3.46 1.39 c-0.69334 0 -1.34 -0.14666 -1.94 -0.44 s-1.0533 -0.68 -1.36 -1.16 l-0.04 0 l0 7 l-1.8 0 l0 -15.12 l1.8 0 l0 1.36 l0.04 0 c0.36 -0.50666 0.83334 -0.9 1.42 -1.18 s1.22 -0.42 1.9 -0.42 z M41.72 15.26 c0 0.98666 0.28998 1.7833 0.86998 2.39 s1.33 0.91 2.25 0.91 c0.96 0 1.7167 -0.30334 2.27 -0.91 s0.83668 -1.4033 0.85002 -2.39 c0 -0.98666 -0.28334 -1.78 -0.85 -2.38 s-1.33 -0.90666 -2.29 -0.92 c-0.94666 0 -1.7 0.31 -2.26 0.93 s-0.84 1.41 -0.84 2.37 z M56.72 10.28 c1.4 0 2.5866 0.48338 3.56 1.45 s1.4667 2.1434 1.48 3.53 c0 1.4 -0.48666 2.5734 -1.46 3.52 s-2.1666 1.4333 -3.58 1.46 c-1.3867 0 -2.5666 -0.48 -3.54 -1.44 s-1.4733 -2.14 -1.5 -3.54 c0 -1.3733 0.48334 -2.54 1.45 -3.5 s2.1634 -1.4533 3.59 -1.48 z M53.6 15.26 c0 0.97334 0.28664 1.7633 0.85998 2.37 s1.3267 0.91666 2.26 0.93 c0.94666 0 1.7 -0.30334 2.26 -0.91 s0.84666 -1.4033 0.86 -2.39 c0 -0.97334 -0.28 -1.7633 -0.84 -2.37 s-1.3267 -0.91666 -2.3 -0.93 c-0.94666 0 -1.7 0.31334 -2.26 0.94 s-0.84 1.4133 -0.84 2.36 z"></path></g>
			</g>
		</svg>
	